<?xml version="1.0" encoding="iso-8859-1"?>
<!-- Uploaded to: SVG Repo, www.svgrepo.com, Generator: SVG Repo Mixer Tools -->
<svg fill="#000000" height="800px" width="800px" version="1.1" id="Layer_1" xmlns="http://www.w3.org/2000/svg" xmlns:xlink="http://www.w3.org/1999/xlink" 
	 viewBox="0 0 481.939 481.939" xml:space="preserve">
<g>
	<g>
		<path d="M407.633,166.747c0.001-1.958-0.75-3.916-2.18-5.272l-14.446-14.467l10.253-17.687c2.036-3.537,0.834-8.206-2.778-10.242
			l-17.687-10.253l5.36-19.648c1.057-4.065-1.349-8.208-5.339-9.265l-19.723-5.285l0.015-20.405
			c0.003-4.141-3.383-7.532-7.524-7.535l-20.405-0.015l-5.256-19.731c-0.526-1.883-1.804-3.54-3.536-4.52
			c-1.731-1.055-3.764-1.283-5.646-0.757l-19.731,5.256L288.783,9.221c-0.978-1.732-2.633-3.014-4.515-3.542
			c-1.957-0.529-3.99-0.229-5.723,0.749l-17.702,10.227L246.397,2.187c-1.354-1.356-3.311-2.186-5.269-2.187
			c-2.033-0.001-3.916,0.825-5.347,2.18l-14.467,14.446L203.703,6.373c-1.731-0.98-3.839-1.283-5.722-0.757
			c-1.958,0.526-3.615,1.804-4.596,3.536l-10.178,17.687l-19.723-5.285c-3.99-1.132-8.133,1.274-9.265,5.264l-5.285,19.723
			l-20.405-0.015c-4.141-0.003-7.532,3.383-7.535,7.524l-0.015,20.405l-19.731,5.256c-1.883,0.526-3.54,1.805-4.52,3.536
			c-1.055,1.731-1.283,3.764-0.757,5.722l5.256,19.656L83.527,118.85c-1.732,0.978-3.014,2.633-3.467,4.59
			c-0.528,1.882-0.304,3.915,0.749,5.648l10.152,17.702l-14.392,14.446c-1.432,1.354-2.261,3.311-2.263,5.269
			c-0.001,2.033,0.825,3.916,2.255,5.347l14.371,14.467l-10.178,17.611c-1.055,1.731-1.283,3.839-0.757,5.722
			c0.45,1.958,1.729,3.615,3.46,4.595l17.687,10.253l-5.285,19.648c-0.528,1.957-0.304,3.99,0.749,5.723
			c0.978,1.732,2.633,3.014,4.515,3.542l19.723,5.285l-0.015,20.405c-0.003,4.141,3.383,7.532,7.524,7.535l20.405,0.015
			l5.256,19.731c1.127,3.991,5.266,6.404,9.257,5.277l19.731-5.256l10.152,17.701c2.106,3.616,6.698,4.824,10.313,2.718
			l17.626-10.152l14.446,14.467c1.43,1.356,3.311,2.186,5.344,2.187c1.958,0.001,3.916-0.825,5.272-2.18l14.467-14.446
			l17.687,10.178c3.537,2.111,8.206,0.909,10.242-2.703l10.253-17.687l19.723,5.285c1.882,0.528,3.915,0.304,5.648-0.749
			c1.732-0.978,3.014-2.633,3.542-4.515l5.285-19.723l20.405,0.015c4.141,0.003,7.532-3.383,7.535-7.524l0.015-20.405l19.731-5.256
			c3.991-1.126,6.404-5.191,5.353-9.257l-5.332-19.656l17.702-10.227c3.616-2.106,4.824-6.698,2.793-10.313l-10.227-17.626
			l14.467-14.446C406.877,170.662,407.632,168.78,407.633,166.747z M240.909,271.367c-57.736-0.042-104.672-47.047-104.63-104.782
			S183.326,61.91,241.061,61.952c57.735,0.042,104.671,47.05,104.629,104.785C345.649,224.473,298.644,271.409,240.909,271.367z"/>
	</g>
</g>
<g>
	<g>
		<path d="M399.757,436.896l-58.183-124.704c-1.894,5.073-5.387,9.346-9.997,11.947c-3.046,1.861-7.025,2.973-11.083,2.97
			c-2.044-0.001-4.081-0.286-6.051-0.843l-8.388-2.245l-4.476,7.71c-3.888,6.887-11.391,11.253-19.501,11.247
			c-4.036-0.003-8.007-1.094-11.469-3.159l-7.504-4.314l-6.306,6.297c-1.634,1.636-3.565,2.907-5.608,3.962l61.496,131.804
			c1.203,2.561,3.686,4.219,6.547,4.372l0.301,0c2.711,0.002,5.196-1.427,6.553-3.835l21.939-38.459l43.59,7.862
			c2.786,0.529,5.572-0.598,7.306-2.781C400.656,442.469,400.96,439.457,399.757,436.896z"/>
	</g>
</g>
<g>
	<g>
		<path d="M225.181,342.069l-6.576-6.582l-7.613,4.388c-3.413,1.983-7.355,3.046-11.341,3.043
			c-7.992-0.006-15.468-4.305-19.499-11.22l-4.458-7.764l-8.538,2.277c-1.772,0.502-3.832,0.788-5.898,0.786
			c-9.44-0.007-17.833-6.042-21.099-14.826L81.79,436.666c-1.207,2.559-0.832,5.571,0.823,7.831c1.73,2.185,4.515,3.316,7.302,2.791
			l43.676-7.799l21.883,38.491c1.278,2.41,3.837,3.843,6.548,3.845l0.301,0c2.786-0.149,5.272-1.803,6.478-4.362l61.744-131.7
			C228.628,344.773,226.793,343.595,225.181,342.069z"/>
	</g>
</g>
<g>
	<g>
		<path d="M241.051,77.011c-49.434-0.036-89.677,40.152-89.713,89.585c-0.036,49.43,40.148,89.677,89.582,89.713
			c49.434,0.036,89.676-40.153,89.712-89.582C330.668,117.293,290.484,77.047,241.051,77.011z"/>
	</g>
</g>
</svg>